<?xml version="1.0" encoding="utf-8"?>
<!-- Generator: Adobe Illustrator 18.0.0, SVG Export Plug-In . SVG Version: 6.00 Build 0)  -->
<!DOCTYPE svg PUBLIC "-//W3C//DTD SVG 1.1//EN" "http://www.w3.org/Graphics/SVG/1.1/DTD/svg11.dtd">
<svg version="1.1" id="图层_1" xmlns="http://www.w3.org/2000/svg" xmlns:xlink="http://www.w3.org/1999/xlink" x="0px" y="0px"
	 viewBox="0 0 27.9 28" enable-background="new 0 0 27.9 28" xml:space="preserve">
<g id="pdf_3_">
	<g>
		<path fill-rule="evenodd" clip-rule="evenodd" fill="#6D7C81" d="M18.7,18.9c-0.1-0.1-0.3-0.2-0.4-0.2c-0.1,0-0.4,0-0.8,0H17v3.2
			h0.7c0.3,0,0.5,0,0.6,0c0.2,0,0.3-0.1,0.4-0.2s0.2-0.2,0.3-0.5c0.1-0.2,0.1-0.5,0.1-0.9s0-0.7-0.1-0.9
			C18.9,19.2,18.8,19,18.7,18.9z M25.1,15.1h-2.2V8.6h0l0,0V8.5h-0.1l-7.7-8.4v0h0L15,0v0.1H2.8C1.2,0.1,0,1.3,0,2.9v22.3
			C0,26.7,1.2,28,2.8,28h17.3c1.5,0,2.8-1.2,2.8-2.8v-0.6h2.2c1.5,0,2.8-1.2,2.8-2.8v-3.9C27.9,16.4,26.6,15.1,25.1,15.1z M15.1,2.1
			l6,6.4h-3.2c-1.5,0-2.8-1.2-2.8-2.8V2.1z M19,26.9H3.9c-1.5,0-2.8-1.2-2.8-2.8V4c0-1.5,1.2-2.8,2.8-2.8h10v5.6
			c0,1.5,1.2,2.8,2.8,2.8h5v5.6H8.9c-1.5,0-2.8,1.2-2.8,2.8v3.9c0,1.5,1.2,2.8,2.8,2.8h12.8C21.4,25.9,20.3,26.9,19,26.9z
			 M20.1,20.3c0,0.4,0,0.7-0.1,1c-0.1,0.3-0.3,0.6-0.5,0.8c-0.2,0.2-0.4,0.3-0.7,0.4c-0.2,0.1-0.5,0.1-0.9,0.1h-1.8v-4.8h1.8
			c0.4,0,0.7,0,0.9,0.1c0.3,0.1,0.5,0.2,0.7,0.4s0.4,0.5,0.5,0.8C20,19.4,20.1,19.8,20.1,20.3z M15.1,19.3c0,0.3-0.1,0.5-0.2,0.7
			c-0.1,0.2-0.2,0.4-0.4,0.5c-0.2,0.1-0.3,0.2-0.5,0.2c-0.2,0-0.6,0.1-1,0.1h-0.6v1.8h-1v-4.8H13c0.6,0,1,0,1.2,0.1
			c0.3,0.1,0.5,0.2,0.7,0.5C15,18.6,15.1,18.9,15.1,19.3z M24.3,18.6H22v1.1h2v0.8h-2v2h-1v-4.8h3.3V18.6z M13.6,18.7
			c-0.1,0-0.3,0-0.7,0h-0.5V20h0.5c0.4,0,0.6,0,0.8-0.1c0.1,0,0.2-0.1,0.3-0.2c0.1-0.1,0.1-0.2,0.1-0.4c0-0.2-0.1-0.3-0.2-0.4
			C13.8,18.8,13.7,18.7,13.6,18.7z"/>
	</g>
</g>
</svg>
