<?xml version="1.0" encoding="utf-8"?>
<!-- Generator: Adobe Illustrator 18.0.0, SVG Export Plug-In . SVG Version: 6.00 Build 0)  -->
<!DOCTYPE svg PUBLIC "-//W3C//DTD SVG 1.1//EN" "http://www.w3.org/Graphics/SVG/1.1/DTD/svg11.dtd">
<svg version="1.1" id="图层_1" xmlns="http://www.w3.org/2000/svg" xmlns:xlink="http://www.w3.org/1999/xlink" x="0px" y="0px"
	 viewBox="0 0 27.3 27.3" enable-background="new 0 0 27.3 27.3" xml:space="preserve">
<path id="print_1_" fill-rule="evenodd" clip-rule="evenodd" fill="#6D7C81" d="M22.3,23.8v1.9c0,0.9-0.9,1.6-1.9,1.6H6.8
	c-0.9,0-1.7-0.7-1.7-1.6v-1.9c-2.8,0-5.1-2.3-5.1-5.1v-5.1c0-2.8,2.2-5.2,5-5.2V1.7C5,0.8,5.9,0,6.8,0h13.6c0.9,0,1.9,0.8,1.9,1.7
	v6.7c2.8,0,5,2.4,5,5.2v5.1C27.3,21.5,25.1,23.8,22.3,23.8z M6.7,25.7h13.9v-7.3H6.7V25.7z M20.6,1.7H6.7v6.7h1.6v-5H19v5h1.6V1.7z
	 M10.1,5v3.4h7.2V5H10.1z M20.6,12.2h-1.1v1.1h1.1V12.2z M20.4,15.1H6.8c-1.9,0-3.4,1.8-3.4,3.6v1.9h1.7v-1.9c0-0.9,0.8-2,1.7-2
	h13.6c0.9,0,1.9,1.1,1.9,2v1.9H24v-1.9C24,16.8,22.3,15.1,20.4,15.1z M23.4,12.2h-1.1v1.1h1.1V12.2z"/>
</svg>
