<?xml version="1.0" encoding="utf-8"?>
<!-- Generator: Adobe Illustrator 18.0.0, SVG Export Plug-In . SVG Version: 6.00 Build 0)  -->
<!DOCTYPE svg PUBLIC "-//W3C//DTD SVG 1.1//EN" "http://www.w3.org/Graphics/SVG/1.1/DTD/svg11.dtd">
<svg version="1.1" id="图层_1" xmlns="http://www.w3.org/2000/svg" xmlns:xlink="http://www.w3.org/1999/xlink" x="0px" y="0px"
	 viewBox="0 0 141.5 53.3" enable-background="new 0 0 141.5 53.3" xml:space="preserve">
<g>
	<g>
		<path fill="#005299" d="M67.5,33.4c-2.5,0-4.5,1-5.5,2.8c0-2.2-2-2.5-2.6-2.5h-2.4v14.8h5.5v-6.3c0-3,1-4.5,3.2-4.5
			c1.6,0,2.3,1.2,2.3,3.6v7.2h5.5v-1.2v-0.1v-2.5v-5.5C73.5,36.4,71.9,33.4,67.5,33.4"/>
		<path fill="#005299" d="M67.5,33.4c-2.5,0-4.5,1-5.5,2.8c0-2.2-2-2.5-2.6-2.5h-2.4v14.8h5.5v-6.3c0-3,1-4.5,3.2-4.5
			c1.6,0,2.3,1.2,2.3,3.6v7.2h5.5v-9.2C73.5,36.4,71.9,33.4,67.5,33.4"/>
		<path fill="#005299" d="M113.7,33.4c-2.5,0-4.6,1.1-5.6,3c-0.6-1.2-1.6-2.2-3.1-2.6c-0.7-0.2-1.4-0.3-2.3-0.3
			c-2.5,0-4.5,1-5.5,2.8c0-2.2-2-2.5-2.6-2.5h-2.4v14.8h5.5v-6.3c0-3,1-4.5,3.2-4.5c1.1,0,1.9,0.8,2.1,1.8c0.2,0.8,0.1,1.6,0.1,2.4
			c0,1.7,0,6.6,0,6.6h5.6c0,0,0-4.4,0-5.7c0-1.3,0-3.2,1-4.2c0.6-0.6,1.3-0.8,2.1-0.8c1.6,0,2.3,1.2,2.3,3.6v7.2h5.5v-9.2
			C119.7,36.4,118.1,33.4,113.7,33.4"/>
		<path fill="#005299" d="M90.3,35.6c0-0.7-0.3-1.9-1.9-1.9c-0.1,0-13.1,0-13.1,0s0,0.6,0,1.2c0,1.4,0.7,2.6,2.8,2.6h5.7l-8.5,7.3h0
			v1.8c0,1.2,0.6,1.9,1.9,1.9h13c0,0,0-0.5,0-1.2c0-1.4-0.7-2.5-2.8-2.5h-5.3l8.1-7.3V35.6z"/>
		<path fill="#005299" d="M126.7,47.5c0,0,1,0.8,2.2,1.1c0.6,0.1,1.1,0.2,1.8,0.2c4.7,0,7-3,7-7.7c0-3.5-1.2-6.1-4.3-7.3
			c-1.5-0.6-3.5-0.7-5.2,0.2c-0.7,0.4-1.1,0.7-1.4,1.1c-0.2,0.2-0.3,0.4-0.5,0.7c-0.1-0.6-0.2-1.1-0.7-1.6c-0.4-0.4-1-0.5-1.5-0.5
			h-2.3v19.2h5V47.5z M130.3,37.3c2.1,0,3.1,1.5,3.1,4c0,2.5-1,4-3.1,4c-2.1,0-3.3-1.5-3.3-4C126.9,38.8,128.2,37.3,130.3,37.3z"/>
	</g>
	<path fill="#7BC043" d="M43.4,23.4c-1.2-1.9-3-3.5-4.9-4.8c-2.2-1.5-4.5-2.9-6.9-4.1c-0.2-0.1-1-0.5-2.3-1.1
		c0,0.3,0.1,8.1,1.1,11.5c0.7,2.4,1.7,5.1,3.5,6.8c1.2,1.2,3.2,2,4.9,2.1c1.7,0.1,3.4-0.6,4.5-1.9c1.7-2,1.9-5,0.7-7.3
		C43.9,24.1,43.7,23.7,43.4,23.4z"/>
	<path fill="#005299" d="M50.5,14C43.5,1.1,27.3-3.8,14.2,3.1C3,9.1-2.4,22.9,1,33.5c0,0,0,0,0.1,0c0.1,0,0.2,0,0.1-0.1
		C1,27.1,1.5,22.7,3.7,18c2.4-5.1,5.7-9.2,10.4-11.8c12.6-7,28-2.3,33.2,9.3c4.1,9.2,2.1,20.6-8,27.2c0,0-0.2,0.1-0.6,0.4
		c-0.5,0.3-1.2,0.6-2.2,1.1c-1.5,0.7-1.9,1.5-2.6,3.6c-1,2.9-2.1,4.5-2.6,5.1c-0.1,0.1,0,0.2,0,0.2c2.7-0.4,5.2-1.3,8.2-2.9
		C52.6,43,57.5,27,50.5,14z"/>
	<path fill="#7BC043" d="M31,48.9c1-2.1,1.5-4.4,1.6-6.6c0.2-2.6,0.1-5.3-0.1-7.9c0-0.2-0.1-1.1-0.2-2.5C32,32,25.4,36.2,23,38.7
		c-1.7,1.8-3.5,4.1-4,6.5c-0.4,1.6-0.1,3.7,0.8,5.2c0.8,1.5,2.3,2.6,4,2.8c2.7,0.4,5.2-1,6.6-3.2C30.6,49.6,30.8,49.3,31,48.9z"/>
	<polygon fill="#005299" points="137.7,33.6 138.1,33.6 138.1,30.3 138.1,30.3 139.5,33.6 139.8,33.6 141.1,30.3 141.1,30.3 
		141.1,33.6 141.5,33.6 141.5,30 141,30 139.6,33.2 138.3,30 137.7,30 	"/>
	<polygon fill="#005299" points="135.7,33.6 136.1,33.6 136.1,30.3 137.2,30.3 137.2,29.9 134.6,29.9 134.6,30.3 135.7,30.3 	"/>
</g>
</svg>
